<?xml version="1.0" encoding="utf-8"?>
<!-- Generator: Adobe Illustrator 18.1.0, SVG Export Plug-In . SVG Version: 6.00 Build 0)  -->
<svg version="1.1" id="Layer_1" xmlns="http://www.w3.org/2000/svg" xmlns:xlink="http://www.w3.org/1999/xlink" x="0px" y="0px"
	 viewBox="0 0 582 364" enable-background="new 0 0 582 364" xml:space="preserve">
<path d="M549.7,210.9h-518c-16.1,0-29.2-13.1-29.2-29.2s13.1-29.2,29.2-29.2h518c16.1,0,29.2,13.1,29.2,29.2
	S565.8,210.9,549.7,210.9z"/>
<path d="M550.2,60.5h-518C16,60.5,2.9,47.4,2.9,31.3S16,2,32.2,2h518c16.1,0,29.2,13.1,29.2,29.2S566.3,60.5,550.2,60.5z"/>
<path d="M550.7,362h-518c-16.1,0-29.2-13.1-29.2-29.2s13.1-29.2,29.2-29.2h518c16.1,0,29.2,13.1,29.2,29.2S566.8,362,550.7,362z"/>
</svg>
