<?xml version="1.0" encoding="utf-8"?>
<!-- Generator: Adobe Illustrator 18.1.0, SVG Export Plug-In . SVG Version: 6.00 Build 0)  -->
<svg version="1.1" id="Layer_1" xmlns="http://www.w3.org/2000/svg" xmlns:xlink="http://www.w3.org/1999/xlink" x="0px" y="0px"
	 viewBox="0 0 573.4 292.7" enable-background="new 0 0 573.4 292.7" xml:space="preserve">
<polygon fill="#BABABA" points="-610.6,914.7 -1041.2,666 -610.6,417.4 "/>
<path d="M564.3,124L449.5,9.2c-11.7-11.7-30.7-11.7-42.4,0c-11.7,11.7-11.7,30.7,0,42.4l59.8,59.8l-436.4-0.1c0,0,0,0,0,0
	c-16.6,0-30,13.4-30,30c0,16.6,13.4,30,30,30l446.4,0.1l-69.8,69.8c-11.7,11.7-11.7,30.7,0,42.4c5.9,5.9,13.5,8.8,21.2,8.8
	s15.4-2.9,21.2-8.8l114.9-114.9c6.1-6.1,9.1-14.3,8.8-22.4C573.4,138.3,570.5,130.2,564.3,124z"/>
<line fill="none" stroke="#000000" stroke-width="60" stroke-linecap="round" stroke-miterlimit="10" x1="636.4" y1="141.3" x2="1139" y2="141.4"/>
<line fill="none" stroke="#000000" stroke-width="60" stroke-linecap="round" stroke-miterlimit="10" x1="1034.2" y1="262.4" x2="1149.1" y2="147.5"/>
<line fill="none" stroke="#000000" stroke-width="60" stroke-linecap="round" stroke-miterlimit="10" x1="1034.2" y1="30.4" x2="1149.1" y2="145.2"/>
</svg>
