<?xml version="1.0" encoding="utf-8"?>
<!-- Generator: Adobe Illustrator 18.1.0, SVG Export Plug-In . SVG Version: 6.00 Build 0)  -->
<svg version="1.1" id="Layer_1" xmlns="http://www.w3.org/2000/svg" xmlns:xlink="http://www.w3.org/1999/xlink" x="0px" y="0px"
	 viewBox="0 0 370 371.7" enable-background="new 0 0 370 371.7" xml:space="preserve">
<path d="M338.3,366.2c-7.5,0-15-2.9-20.7-8.6L10.9,50.9c-11.4-11.4-11.4-29.9,0-41.4s29.9-11.4,41.4,0L359,316.3
	c11.4,11.4,11.4,29.9,0,41.4C353.3,363.3,345.8,366.2,338.3,366.2z"/>
<path d="M31.5,367c-7.5,0-15-2.9-20.7-8.6c-11.4-11.4-11.4-29.9,0-41.4L317.6,10.3c11.4-11.4,29.9-11.4,41.4,0
	c11.4,11.4,11.4,29.9,0,41.4L52.2,358.4C46.5,364.1,39,367,31.5,367z"/>
</svg>
